<svg xmlns="http://www.w3.org/2000/svg" viewBox="0 0 443.01 443.01"><defs><style>.cls-1{fill:#231f20;stroke:#231f20;stroke-miterlimit:10;}.cls-2{fill:#fff;}</style></defs><g id="Layer_2" data-name="Layer 2"><g id="Layer_1-2" data-name="Layer 1"><rect class="cls-1" x="0.5" y="0.5" width="442.01" height="442.01"/><path class="cls-2" d="M425.35,246c-1.05,5.71-2,11.44-3.17,17.13a195,195,0,0,1-35.36,78.56,200,200,0,0,1-83.13,65.25A193.67,193.67,0,0,1,253,420.84a205.53,205.53,0,0,1-51.51.34A200.9,200.9,0,0,1,25.71,200,197.16,197.16,0,0,1,57,112.42a199.9,199.9,0,0,1,68.89-65.06,197.69,197.69,0,0,1,73.55-24.73,200.45,200.45,0,0,1,70.39,3.15A198,198,0,0,1,343.26,59a200.09,200.09,0,0,1,61.84,72.49,193.56,193.56,0,0,1,19.71,64.38,8.15,8.15,0,0,0,.54,1.55ZM29,221.7C28.94,330,116.77,418.12,225,418.25c108.76.13,196.66-87.42,197.14-195.69.47-107.87-87-197.35-196.73-197.26C116.74,25.38,29,113.45,29,221.7Z"/><path d="M29,221.7C29,113.45,116.74,25.38,225.39,25.3c109.71-.09,197.2,89.39,196.73,197.26C421.64,330.83,333.74,418.38,225,418.25,116.77,418.12,28.94,330,29,221.7Zm347.74-1.59c-.06-84.52-68.36-152.53-153.21-152.56-83.79,0-152.31,68.54-152.29,152.39,0,84.49,68.2,153,152.27,153C308.47,372.92,376.81,304.77,376.75,220.11ZM181.41,372.83c-.68,1-.87,1.19-.87,1.34,0,9.67-.12,19.35,0,29,0,.79,1.29,1.58,2,2.37l.89-.56V380.15a6.56,6.56,0,0,1,2.11,2.33c5.12,8.32,10.17,16.68,15.4,24.93.74,1.17,2.35,1.79,3.55,2.67l.7-.66c0-9.95.05-19.9-.1-29.85,0-.65-1.52-1.29-2.33-1.94l-.83.65v25.57c-1-1.48-1.55-2.23-2-3-4.86-8-9.65-16.12-14.59-24.1C184.38,375.3,182.85,374.26,181.41,372.83Zm83,32.23c2.79.42,2.89-1,2.88-2.67,0-8.46,0-16.93,0-25.39v-3.25c-2.16-.14-3,.61-2.86,2.45s0,3.76,0,5.64c0,6.6,0,6.66-6.37,8-3.43.72-6.91,1.21-10.72,1.87,0-4.18.07-7.83-.06-11.47,0-.8-.79-1.57-1.21-2.35-.6.75-1.7,1.49-1.71,2.24-.12,9-.1,18.06,0,27.09,0,.68.81,1.35,1.25,2,.58-.67,1.58-1.29,1.64-2,.22-2.24.09-4.51.09-6.76,0-5.78,0-5.82,5.52-7,3.71-.81,7.46-1.49,11.55-2.3Zm101.8-295.73.35.81c-1.06.88-2.11,1.77-3.18,2.62-2.06,1.64-4.19,3.19-6.16,4.93-.43.38-.31,1.38-.44,2.1.64.08,1.53.47,1.9.19,4.42-3.3,8.76-6.71,13-10-.68-2.39-2.08-3-4.14-2.93-5.39.28-10.79.45-16.35.68.75-5.24,1.36-10.45,2.3-15.6.43-2.33-.13-3.8-2.52-5-3.77,4-7.63,8.12-11.33,12.33-.31.35.4,1.6.63,2.44l1.22.31,9.32-9.09c-.06.58-.13,1.6-.29,2.6q-.94,5.85-1.92,11.68c-.38,2.23-.06,3.18,2.75,2.81C356.24,109.58,361.22,109.59,366.17,109.33ZM320.78,65.41l-9.11,15c1.7,1.87,2.51,1,3.32-.3,2-3.29,4.14-6.55,6.21-9.83a110.28,110.28,0,0,1,1.43,15c.12,3,.28,3.06,3.1,2.21,4.89-1.47,9.81-2.84,14.73-4.26l.35.63-8.72,10.45.36,1c.87-.1,2.1.14,2.54-.35,3.66-4,7.16-8.19,10.69-12.28-2-2.44-2-2.5-4.6-1.82-5.34,1.41-10.66,2.89-16,4.34-.26-5.15-.63-10.3-.74-15.45C324.26,67.39,323.43,66,320.78,65.41ZM64.5,195.24a88.41,88.41,0,0,0-1.78-8.77,7.26,7.26,0,0,0-6.57-5.41,6.93,6.93,0,0,0-6.72,3.9,29.22,29.22,0,0,0-2.08,25.78c1.06,2.8,3.1,4.86,6.25,5s5.18-1.86,6.69-4.43C63.2,206.38,64,200.94,64.5,195.24Zm54.73-100c-3.67-4.4-6.66-8.12-9.83-11.67-.85-1-1.48-3.63-3.52-1.74s.54,2.75,1.36,3.79c2.15,2.77,4.53,5.35,7,8.16-7.33.45-14.16.77-21,1.37-1.41.12-2.73,1.3-4.5,2.2,4.1,3.76,7.5,7,11.05,10,1,.86,2,3.39,3.71,1.46,1.55-1.74-1-2.45-1.82-3.36-2.48-2.61-5.18-5-7.8-7.49l.27-.94c6.72-.22,13.44-.39,20.16-.7A31.93,31.93,0,0,0,119.23,95.23ZM246.68,60.45c.85-6.82,1.57-12.54,2.28-18.22-2.2-.87-3.11-.46-3.3,1.69-.35,4-.92,7.94-1.4,11.91l-.85.48A14.48,14.48,0,0,0,241.83,54c-4.31-4.19-8.61-8.4-13.05-12.44a4.88,4.88,0,0,0-3.34-.84c-.37,0-.88,1.63-.9,2.53-.08,4.23-.09,8.46.06,12.69,0,.88.8,1.74,1.23,2.61.46-.86,1.29-1.7,1.32-2.57.14-3.91.06-7.84.06-12.36a20.21,20.21,0,0,1,2,1.41c4.53,4.37,9,8.78,13.6,13.09A23.62,23.62,0,0,0,246.68,60.45ZM67.86,175.23c-2-.6-3.88-1-5.6-1.71-.62-.24-1.52-1.15-1.44-1.59.62-3.16,1.44-6.28,4.83-7.76a30.06,30.06,0,0,0,4.82-2.3,17.06,17.06,0,0,0,2.77-3l-.75-.77-9.85,4.74c0-1.52.34-3-.09-4.24s-1.43-3-2.55-3.3-2.75.56-4,1.24a4.26,4.26,0,0,0-1.64,2.23c-1.68,4.72-3.24,9.48-5,14.53l17.62,4.91ZM302.26,74.91c5.74,0,9.13-1.79,10.36-5.2,1.31-3.59.14-6.74-2.53-9.2a21,21,0,0,0-15.94-5.85c-3.48.2-6.19,1.77-7.45,5.09s-.35,6.13,2,8.58A21.19,21.19,0,0,0,302.26,74.91ZM70.1,127.31l-.24-.66c-.68.35-1.57.53-2,1.08-4.07,5.13-6.94,10.78-6.57,17.54.18,3.31,1.27,6.26,4.73,7.7s6.27,0,8.72-2.22c4.38-4,6.54-9.34,8.05-14.94a2.21,2.21,0,0,0-.45-1.93c-1.86-1.34-3.87-2.48-5.78-3.67-3.11,4-4.56,7.41-3.83,9.5l3.57-6.1c1.67,1.31,4.82,1.1,4.17,3.93-1,4.43-3.06,8.54-6.9,11.34-4.32,3.17-9.84.79-10.1-4.56a20.38,20.38,0,0,1,1.44-8.46C66.16,132.81,68.33,130.14,70.1,127.31ZM204.67,60.76c3.77-1.29,7.69-2.23,11.23-4,3-1.45,4.28-4.46,3.9-7.86a7.3,7.3,0,0,0-5.34-6.31C207.73,40.32,201.24,41,195.38,45c-4.64,3.23-4.56,9.58.25,12.51C198.17,59.1,201.33,59.62,204.67,60.76ZM228.33,382v3.61c0,7.62,0,15.24.07,22.86,0,.73.91,1.44,1.39,2.15.51-.72,1.37-1.4,1.46-2.17a41.48,41.48,0,0,0,.08-5.35V382.34c9-2.12,9-2.12,8.86-3-6.62,0-13.18,0-19.74.07-.43,0-.84.93-1.26,1.43.51.41,1,1.14,1.52,1.17C223.13,382.1,225.55,382,228.33,382ZM405.17,214.26l1.44-.15c-.46-6-.9-12-1.44-18a1.77,1.77,0,0,0-1.37-1c-5.44.72-10.87,1.56-16.43,2.38.56,6.44,1.07,12.37,1.59,18.3l1.3-.07c-.25-5-.5-10-.77-15.22l6.53-.76c.36,4.78.7,9.24,1,13.7l.92-.07v-14l6-.66C404.39,204,404.78,209.14,405.17,214.26ZM99.93,112.17c-6.69-.78-13.07-1.61-19.48-2.22-2.27-.22-3.52,1.69-2.7,4,1.32,3.61,2.78,7.17,4.28,10.71,1,2.46,2.22,4.86,3.34,7.29l1.07-.13c.07-1.14.65-2.63.13-3.36-2.47-3.51-1.19-6.22,1.3-8.93a21.4,21.4,0,0,0,2.71-3.59c1.17-2,2.65-2.34,4.75-1.6C97,114.89,98.89,115.31,99.93,112.17ZM403,188.36c.51-.94.85-1.27.81-1.53-1-5.25-2-10.51-3.15-15.72-.1-.44-1.63-1-2.34-.8-3,.73-6,1.68-8.92,2.59-6.11,1.89-6.11,1.9-4.84,8.11.26,1.29.59,2.57.83,3.86.42,2.22.79,4.45,1.18,6.68.87-.38,1.34-.83,1.28-1.21-.32-2.41-.64-4.84-1.18-7.21-1.68-7.39-1.6-5.41,4.44-7.23a3.61,3.61,0,0,1,.92.09c.83,4,1.69,8.12,2.55,12.24l.82-.13c.75-4.36-1.59-8.48-1.58-12.89,1-.35,2-.64,2.94-1,2.1-.85,3.28-.44,3.62,2.05.45,3.25,1.18,6.46,1.82,9.68A22.37,22.37,0,0,0,403,188.36ZM166.88,67.56c-5.38-3.85-10.63-7.73-16-11.4-1.75-1.19-3.67.08-3.94,2.34-.41,3.45-.8,6.9-1.11,10.36-.24,2.66-.35,5.34-.52,8l1.07.4c.57-.91,1.75-1.92,1.63-2.73-.62-3.83,1.42-5.45,4.63-6.39A12.91,12.91,0,0,0,155.21,67c2.84-1.62,5.4-1.59,7.78.94C164.05,69.1,165.35,69.49,166.88,67.56ZM215,410.06c0-9.79,0-19.45-.07-29.1,0-.69-1.05-1.37-1.61-2-.43.69-1.22,1.37-1.23,2.06-.07,9.1,0,18.2,0,27.31C212,410.27,212.9,410.75,215,410.06ZM134.13,64.86l.17-.69c-.75,0-1.65-.27-2.23,0a49.24,49.24,0,0,0-7.42,4.51c-1.75,1.41-3.82,3.39-2.7,6,1.25,2.93,4,2.08,6.44,1.66,2.68-.47,5.34-1.11,8-1.39a3.07,3.07,0,0,1,2.49,1.29,2.88,2.88,0,0,1-.49,2.7,32.2,32.2,0,0,1-5.24,3.71A37.3,37.3,0,0,1,129,84.53l.12.8c.73,0,1.63.39,2.15.09a60,60,0,0,0,8.94-5.74,5.51,5.51,0,0,0,1.22-4.93c-.39-1-2.9-1.86-4.44-1.82-2.78.08-5.53,1.07-8.33,1.29-1.29.11-2.66-.69-4-1.08.6-1.27.86-3,1.86-3.74A75.72,75.72,0,0,1,134.13,64.86Zm152-12.94.53-.3c-.42-.55-.72-1.33-1.27-1.6-4.55-2.22-9.33-3.53-14.42-2.77-4.55.68-7.42,3.19-8.09,6.73-.65,3.36,1.19,7.13,5.33,9,3.52,1.61,7.42,2.41,11.19,3.45.62.18,1.41-.23,2.12-.38l0-.74a33.14,33.14,0,0,1-5.93-1.19c-2.65-1-5.51-2.09-7.6-3.91a6.08,6.08,0,0,1,2.23-10.57,15.49,15.49,0,0,1,7.16-.5C280.36,49.66,283.22,51,286.14,51.92Zm111.8,113.86c1.29-3.79-5.21-21.09-7.88-22,1.23,3.26,2.35,6.25,3.51,9.35l-15,6.24c.25,2.36,1.25,2.77,3.08,2,4.26-1.73,8.55-3.37,13-5.13ZM389.35,142c1-3-7.23-18.55-10.24-20a13.9,13.9,0,0,0,.7,2.21,35.18,35.18,0,0,0,2.46,4.09c1.37,1.88.75,2.92-1.12,3.92-3.39,1.81-6.66,3.85-10,5.71-1.79,1-2,2-.29,3.46,3.85-2.13,7.76-4.16,11.51-6.42,2.14-1.29,3.26-1.06,4.15,1.37A56.25,56.25,0,0,0,389.35,142ZM170.62,50.08l8.38-2.6-.38-1.1A100,100,0,0,0,159,52.18l.3,1.18,8.44-2.47c1.54,4.54,3,8.87,4.48,13.2.35,1,.46,2.56,2.06,1.71.48-.25.67-1.73.45-2.49C173.47,58.93,172,54.59,170.62,50.08Zm207,68.22c.05-.37.09-.73.14-1.09-.92-.27-2.2-1.08-2.72-.73-4.57,3-9,6.27-13.49,9.45v1c.89.17,2.08.79,2.64.43C368.69,124.45,373.12,121.35,377.59,118.3ZM125.28,90.11l.24-.94c-3.26-4.35-6.5-8.7-9.79-13-1.39-1.83-2.1-.33-3.16.68,3.41,4.41,6.68,8.75,10.12,13C123.09,90.25,124.39,90,125.28,90.11Zm63.95-28c-1.24-5.47-2.37-10.57-3.54-15.67-.53-2.33-1.76-1.46-3.2-.71,1.4,5.68,2.75,11.19,4.15,16.87Z"/><path class="cls-2" d="M376.75,220.11c.06,84.66-68.28,152.81-153.23,152.81-84.07,0-152.24-68.49-152.27-153,0-83.85,68.5-152.42,152.29-152.39C308.39,67.58,376.69,135.59,376.75,220.11ZM366.2,220A142.19,142.19,0,1,0,224.49,362.34C303,362,366.56,298.19,366.2,220Z"/><path class="cls-2" d="M181.41,372.83c1.44,1.43,3,2.47,3.86,3.91,4.94,8,9.73,16.06,14.59,24.1.47.78,1,1.53,2,3V378.28l.83-.65c.81.65,2.32,1.29,2.33,1.94.15,9.95.1,19.9.1,29.85l-.7.66c-1.2-.88-2.81-1.5-3.55-2.67-5.23-8.25-10.28-16.61-15.4-24.93a6.56,6.56,0,0,0-2.11-2.33V405l-.89.56c-.68-.79-2-1.58-2-2.37-.1-9.68,0-19.36,0-29C180.54,374,180.73,373.87,181.41,372.83Z"/><path class="cls-2" d="M264.37,405.06V391.17c-4.09.81-7.84,1.49-11.55,2.3-5.53,1.2-5.52,1.24-5.52,7,0,2.25.13,4.52-.09,6.76-.06.72-1.06,1.34-1.64,2-.44-.68-1.25-1.35-1.25-2-.1-9-.12-18.06,0-27.09,0-.75,1.11-1.49,1.71-2.24.42.78,1.18,1.55,1.21,2.35.13,3.64.06,7.29.06,11.47,3.81-.66,7.29-1.15,10.72-1.87,6.38-1.35,6.36-1.41,6.37-8,0-1.88.09-3.77,0-5.64s.7-2.59,2.86-2.45V377c0,8.46,0,16.93,0,25.39C267.26,404.08,267.16,405.48,264.37,405.06Z"/><path class="cls-2" d="M366.17,109.33c-4.95.26-9.93.25-14.83.89-2.81.37-3.13-.58-2.75-2.81q1-5.84,1.92-11.68c.16-1,.23-2,.29-2.6l-9.32,9.09-1.22-.31c-.23-.84-.94-2.09-.63-2.44,3.7-4.21,7.56-8.28,11.33-12.33,2.39,1.17,3,2.64,2.52,5-.94,5.15-1.55,10.36-2.3,15.6,5.56-.23,11-.4,16.35-.68,2.06-.11,3.46.54,4.14,2.93-4.27,3.31-8.61,6.72-13,10-.37.28-1.26-.11-1.9-.19.13-.72,0-1.72.44-2.1,2-1.74,4.1-3.29,6.16-4.93,1.07-.85,2.12-1.74,3.18-2.62Z"/><path class="cls-2" d="M320.78,65.41c2.65.58,3.48,2,3.53,4.32.11,5.15.48,10.3.74,15.45,5.37-1.45,10.69-2.93,16-4.34,2.57-.68,2.59-.62,4.6,1.82-3.53,4.09-7,8.25-10.69,12.28-.44.49-1.67.25-2.54.35l-.36-1,8.72-10.45-.35-.63c-4.92,1.42-9.84,2.79-14.73,4.26-2.82.85-3,.76-3.1-2.21a110.28,110.28,0,0,0-1.43-15c-2.07,3.28-4.17,6.54-6.21,9.83-.81,1.31-1.62,2.17-3.32.3Z"/><path class="cls-2" d="M64.5,195.24c-.49,5.7-1.3,11.14-4.21,16.08-1.51,2.57-3.51,4.59-6.69,4.43s-5.19-2.21-6.25-5A29.22,29.22,0,0,1,49.43,185a6.93,6.93,0,0,1,6.72-3.9,7.26,7.26,0,0,1,6.57,5.41A88.41,88.41,0,0,1,64.5,195.24Zm-1.36.86-.38-.17c-.23-1.58-.34-3.18-.69-4.73-.88-3.87-3.16-6.21-6.15-6.49-2.8-.26-5.48,1.57-6.94,5.2a23.74,23.74,0,0,0-.88,16.54c.88,2.75,2.46,5,5.58,5.3s5.26-1.72,6.25-4.38C61.29,203.72,62.09,199.86,63.14,196.1Z"/><path class="cls-2" d="M119.23,95.23a31.93,31.93,0,0,1-4.92,1.12c-6.72.31-13.44.48-20.16.7l-.27.94c2.62,2.48,5.32,4.88,7.8,7.49.86.91,3.37,1.62,1.82,3.36-1.72,1.93-2.71-.6-3.71-1.46-3.55-3-7-6.28-11.05-10,1.77-.9,3.09-2.08,4.5-2.2,6.8-.6,13.63-.92,21-1.37-2.43-2.81-4.81-5.39-7-8.16-.82-1-3.28-2-1.36-3.79s2.67.79,3.52,1.74C112.57,87.11,115.56,90.83,119.23,95.23Z"/><path class="cls-2" d="M246.68,60.45a23.62,23.62,0,0,1-3.86-2.33c-4.58-4.31-9.07-8.72-13.6-13.09a20.21,20.21,0,0,0-2-1.41c0,4.52.08,8.45-.06,12.36,0,.87-.86,1.71-1.32,2.57-.43-.87-1.21-1.73-1.23-2.61-.15-4.23-.14-8.46-.06-12.69,0-.9.53-2.51.9-2.53a4.88,4.88,0,0,1,3.34.84c4.44,4,8.74,8.25,13.05,12.44a14.48,14.48,0,0,1,1.58,2.31l.85-.48c.48-4,1.05-7.93,1.4-11.91.19-2.15,1.1-2.56,3.3-1.69C248.25,47.91,247.53,53.63,246.68,60.45Z"/><path class="cls-2" d="M67.86,175.23l-.81,3-17.62-4.91c1.71-5.05,3.27-9.81,5-14.53A4.26,4.26,0,0,1,56,156.52c1.23-.68,2.88-1.59,4-1.24s2.1,2,2.55,3.3.09,2.72.09,4.24l9.85-4.74.75.77a17.06,17.06,0,0,1-2.77,3,30.06,30.06,0,0,1-4.82,2.3c-3.39,1.48-4.21,4.6-4.83,7.76-.08.44.82,1.35,1.44,1.59C64,174.19,65.81,174.63,67.86,175.23Zm-16-4.82c2.12.66,3.78,1.28,5.5,1.67.56.12,1.75-.23,1.83-.57A63.83,63.83,0,0,0,61,161.9a4.27,4.27,0,0,0-2.28-3.3c-.69-.29-2.69,1-3.16,2C54.1,163.69,53.09,167,51.84,170.41Z"/><path class="cls-2" d="M302.26,74.91a21.19,21.19,0,0,1-13.6-6.58c-2.31-2.45-3.17-5.38-2-8.58s4-4.89,7.45-5.09a21,21,0,0,1,15.94,5.85c2.67,2.46,3.84,5.61,2.53,9.2C311.39,73.12,308,74.94,302.26,74.91ZM297.8,56.38c-7,0-10.59,5.5-7.71,10.52,2.29,4,10.52,7.23,14.91,5.88,5.35-1.64,7-7.59,3-11.59A16.85,16.85,0,0,0,297.8,56.38Z"/><path class="cls-2" d="M70.1,127.31c-1.77,2.83-3.94,5.5-5.19,8.55a20.38,20.38,0,0,0-1.44,8.46c.26,5.35,5.78,7.73,10.1,4.56,3.84-2.8,5.87-6.91,6.9-11.34.65-2.83-2.5-2.62-4.17-3.93l-3.57,6.1c-.73-2.09.72-5.46,3.83-9.5,1.91,1.19,3.92,2.33,5.78,3.67a2.21,2.21,0,0,1,.45,1.93c-1.51,5.6-3.67,10.91-8.05,14.94C72.29,153,69.5,154.43,66,153s-4.55-4.39-4.73-7.7c-.37-6.76,2.5-12.41,6.57-17.54.43-.55,1.32-.73,2-1.08Z"/><path class="cls-2" d="M204.67,60.76c-3.34-1.14-6.5-1.66-9-3.21-4.81-2.93-4.89-9.28-.25-12.51,5.86-4.07,12.35-4.72,19.08-2.41a7.3,7.3,0,0,1,5.34,6.31c.38,3.4-.93,6.41-3.9,7.86C212.36,58.53,208.44,59.47,204.67,60.76Zm.5-2a61.45,61.45,0,0,0,8-2.53,6.24,6.24,0,0,0,3.67-6.46,6.4,6.4,0,0,0-4.49-5.89,15.26,15.26,0,0,0-14,1.6c-2.19,1.36-3.95,3.58-3.14,6.09a12.69,12.69,0,0,0,4.21,5.55C200.73,58.21,202.9,58.21,205.17,58.8Z"/><path class="cls-2" d="M228.33,382c-2.78,0-5.2.07-7.62-.06-.52,0-1-.76-1.52-1.17.42-.5.83-1.43,1.26-1.43,6.56-.09,13.12-.07,19.74-.07.11.92.11.92-8.86,3v20.79a41.48,41.48,0,0,1-.08,5.35c-.09.77-.95,1.45-1.46,2.17-.48-.71-1.38-1.42-1.39-2.15-.1-7.62-.06-15.24-.07-22.86Z"/><path class="cls-2" d="M405.17,214.26c-.39-5.12-.78-10.23-1.2-15.61l-6,.66v14l-.92.07c-.34-4.46-.68-8.92-1-13.7l-6.53.76c.27,5.2.52,10.21.77,15.22l-1.3.07c-.52-5.93-1-11.86-1.59-18.3,5.56-.82,11-1.66,16.43-2.38a1.77,1.77,0,0,1,1.37,1c.54,6,1,12,1.44,18Z"/><path class="cls-2" d="M99.93,112.17c-1,3.14-2.9,2.72-4.6,2.12-2.1-.74-3.58-.35-4.75,1.6a21.4,21.4,0,0,1-2.71,3.59c-2.49,2.71-3.77,5.42-1.3,8.93.52.73-.06,2.22-.13,3.36l-1.07.13c-1.12-2.43-2.31-4.83-3.34-7.29-1.5-3.54-3-7.1-4.28-10.71-.82-2.26.43-4.17,2.7-4C86.86,110.56,93.24,111.39,99.93,112.17Zm-9.77,1.5-10.32-1.14,4,9.57Z"/><path class="cls-2" d="M403,188.36a22.37,22.37,0,0,1-.8-2.44c-.64-3.22-1.37-6.43-1.82-9.68-.34-2.49-1.52-2.9-3.62-2.05-.94.38-1.91.67-2.94,1,0,4.41,2.33,8.53,1.58,12.89l-.82.13c-.86-4.12-1.72-8.24-2.55-12.24a3.61,3.61,0,0,0-.92-.09c-6,1.82-6.12-.16-4.44,7.23.54,2.37.86,4.8,1.18,7.21.06.38-.41.83-1.28,1.21-.39-2.23-.76-4.46-1.18-6.68-.24-1.29-.57-2.57-.83-3.86-1.27-6.21-1.27-6.22,4.84-8.11,3-.91,5.91-1.86,8.92-2.59.71-.17,2.24.36,2.34.8,1.18,5.21,2.16,10.47,3.15,15.72C403.87,187.09,403.53,187.42,403,188.36Z"/><path class="cls-2" d="M166.88,67.56c-1.53,1.93-2.83,1.54-3.89.41-2.38-2.53-4.94-2.56-7.78-.94a12.91,12.91,0,0,1-2.59,1.12c-3.21.94-5.25,2.56-4.63,6.39.12.81-1.06,1.82-1.63,2.73l-1.07-.4c.17-2.67.28-5.35.52-8,.31-3.46.7-6.91,1.11-10.36.27-2.26,2.19-3.53,3.94-2.34C156.25,59.83,161.5,63.71,166.88,67.56Zm-17.41-9.41c-.37,3.69-.65,6.59-1,10.06l9.31-4Z"/><path class="cls-2" d="M215,410.06c-2.11.69-3,.21-3-1.78,0-9.11,0-18.21,0-27.31,0-.69.8-1.37,1.23-2.06.56.68,1.6,1.36,1.61,2C215.05,390.61,215,400.27,215,410.06Z"/><path class="cls-2" d="M134.13,64.86a75.72,75.72,0,0,0-7.64,4.54c-1,.74-1.26,2.47-1.86,3.74,1.33.39,2.7,1.19,4,1.08,2.8-.22,5.55-1.21,8.33-1.29,1.54,0,4.05.77,4.44,1.82a5.51,5.51,0,0,1-1.22,4.93,60,60,0,0,1-8.94,5.74c-.52.3-1.42,0-2.15-.09l-.12-.8a37.3,37.3,0,0,0,4.23-1.85A32.2,32.2,0,0,0,138.43,79a2.88,2.88,0,0,0,.49-2.7A3.07,3.07,0,0,0,136.43,75c-2.7.28-5.36.92-8,1.39-2.41.42-5.19,1.27-6.44-1.66-1.12-2.59,1-4.57,2.7-6a49.24,49.24,0,0,1,7.42-4.51c.58-.32,1.48,0,2.23,0Z"/><path class="cls-2" d="M286.14,51.92c-2.92-1-5.78-2.26-8.78-2.76a15.49,15.49,0,0,0-7.16.5A6.08,6.08,0,0,0,268,60.23c2.09,1.82,4.95,2.88,7.6,3.91a33.14,33.14,0,0,0,5.93,1.19l0,.74c-.71.15-1.5.56-2.12.38-3.77-1-7.67-1.84-11.19-3.45-4.14-1.89-6-5.66-5.33-9,.67-3.54,3.54-6,8.09-6.73,5.09-.76,9.87.55,14.42,2.77.55.27.85,1,1.27,1.6Z"/><path class="cls-2" d="M397.94,165.78l-3.29-9.5c-4.49,1.76-8.78,3.4-13,5.13-1.83.75-2.83.34-3.08-2l15-6.24c-1.16-3.1-2.28-6.09-3.51-9.35C392.73,144.69,399.23,162,397.94,165.78Z"/><path class="cls-2" d="M389.35,142a56.25,56.25,0,0,1-2.85-5.71c-.89-2.43-2-2.66-4.15-1.37-3.75,2.26-7.66,4.29-11.51,6.42-1.7-1.47-1.5-2.47.29-3.46,3.36-1.86,6.63-3.9,10-5.71,1.87-1,2.49-2,1.12-3.92a35.18,35.18,0,0,1-2.46-4.09,13.9,13.9,0,0,1-.7-2.21C382.12,123.48,390.31,139,389.35,142Z"/><path class="cls-2" d="M170.62,50.08c1.42,4.51,2.85,8.85,4.11,13.23.22.76,0,2.24-.45,2.49-1.6.85-1.71-.67-2.06-1.71-1.46-4.33-2.94-8.66-4.48-13.2l-8.44,2.47-.3-1.18a100,100,0,0,1,19.62-5.8l.38,1.1Z"/><path class="cls-2" d="M377.59,118.3c-4.47,3-8.9,6.15-13.44,9.07-.56.36-1.75-.26-2.64-.43v-1c4.48-3.18,8.92-6.42,13.49-9.45.52-.35,1.8.46,2.72.73C377.68,117.57,377.64,117.93,377.59,118.3Z"/><path class="cls-2" d="M125.28,90.11c-.89-.1-2.19.14-2.59-.35-3.44-4.2-6.71-8.54-10.12-13,1.06-1,1.77-2.51,3.16-.68,3.29,4.34,6.53,8.69,9.79,13Z"/><path class="cls-2" d="M189.23,62.13l-2.59.49c-1.4-5.68-2.75-11.19-4.15-16.87,1.44-.75,2.67-1.62,3.2.71C186.86,51.56,188,56.66,189.23,62.13Z"/><path d="M63.14,196.1c-1,3.76-1.85,7.62-3.21,11.27-1,2.66-3.11,4.64-6.25,4.38s-4.7-2.55-5.58-5.3A23.74,23.74,0,0,1,49,189.91c1.46-3.63,4.14-5.46,6.94-5.2,3,.28,5.27,2.62,6.15,6.49.35,1.55.46,3.15.69,4.73Z"/><path d="M51.84,170.41c1.25-3.41,2.26-6.72,3.72-9.82.47-1,2.47-2.28,3.16-2A4.27,4.27,0,0,1,61,161.9a63.83,63.83,0,0,1-1.83,9.61c-.08.34-1.27.69-1.83.57C55.62,171.69,54,171.07,51.84,170.41Z"/><path d="M297.8,56.38A16.85,16.85,0,0,1,308,61.19c3.92,4,2.31,10-3,11.59-4.39,1.35-12.62-1.9-14.91-5.88C287.21,61.88,290.78,56.41,297.8,56.38Z"/><path d="M205.17,58.8c-2.27-.59-4.44-.59-5.78-1.64a12.69,12.69,0,0,1-4.21-5.55c-.81-2.51.95-4.73,3.14-6.09a15.26,15.26,0,0,1,14-1.6,6.4,6.4,0,0,1,4.49,5.89,6.24,6.24,0,0,1-3.67,6.46A61.45,61.45,0,0,1,205.17,58.8Z"/><path d="M90.16,113.67l-6.27,8.43-4-9.57Z"/><path d="M149.47,58.15l8.32,6.05-9.31,4C148.82,64.74,149.1,61.84,149.47,58.15Z"/><path class="cls-2" d="M226.27,293.57a60.47,60.47,0,0,0,6.12-5.32c3.31-3.71,6.4-7.61,9.41-11.57,1-1.33,1.84-2,3.66-1.76,10.48,1.28,18.1-5.37,19-16,1.26-14.91-9.69-29.64-22-32.71-8-2-11.05-12.34-6.24-19.38,1.53-2.22,2.67-4.71,4.23-6.9a12.93,12.93,0,0,1,3.62-3.41c6-3.68,12.36-5.35,19.39-4,1.92.37,2.85,1.15,2.31,3.26-.82,3.19-1.12,6.55-2.33,9.57-1,2.49-.28,3.58,1.61,5,11.31,8.45,18.32,19.79,21.47,33.44,2.7,11.69,1.95,23.19-3.51,34.07a4.83,4.83,0,0,1-3.27,2.34c-10.61,1-17.42,6.8-21.27,16.43-.61,1.51-1.22,2.55-3,2.88-10.17,1.85-19.57-.45-28.53-5.15C226.68,294.24,226.56,293.94,226.27,293.57Z"/><path class="cls-2" d="M261,161.64l-17.35,2.91a2.33,2.33,0,0,0-.55.14c-3.9,2.11-6.86,1.73-10.56-1.49-6.14-5.36-14.25-4.32-20.09,1.6-6.77,6.85-8.67,15.4-8.13,24.68a29.78,29.78,0,0,0,6.39,17.07,12.71,12.71,0,0,1-6.48,19.87,13.94,13.94,0,0,0-3.45,1.2c-6.86,4.35-13.07,1.4-19.07-1.85-2.57-1.4-4.62-3.76-6.9-5.68-1.34-1.13-1.14-2.2.08-3.27,2.6-2.3,5.12-4.7,7.82-6.88,1.4-1.13,1.84-1.93,1.25-3.91-6.62-22.2-3.48-42.46,12.84-59.68,2.73-2.88,6.35-5,9.75-7.13a4.25,4.25,0,0,1,3.75.19c8.9,5.68,18,5.75,26.66-.19a3.06,3.06,0,0,1,3.84-.05c4.79,3.1,9.76,5.87,12.74,11.15,1.71,3,4.17,5.62,6.2,8.48A15.64,15.64,0,0,1,261,161.64Z"/><path class="cls-2" d="M160.38,246.92a3,3,0,0,1,1,.33,59.31,59.31,0,0,0,19.58,10.36,3.4,3.4,0,0,1,1.95,2.3c1.53,13.65,15.33,20.3,28.63,11,9.7-6.77,14.42-16.39,14-28.28-.31-9.68,7.89-15.63,16.82-12.07a7,7,0,0,0,1.85.67c8.73.85,12.39,7.38,15.61,14.17,1.19,2.5,1.56,5.39,2.2,8.13.43,1.82-.33,2.87-2.29,3-3.28.18-6.56.55-9.84.55-1.75,0-2.47.54-2.92,2.2a56.35,56.35,0,0,1-22.54,32.44c-9.61,6.7-20.25,9.72-32.05,7.87a4.1,4.1,0,0,1-3.67-2.88c-3.78-9.83-10.73-15.61-21.46-16.52a4,4,0,0,1-2.83-1.78,49.08,49.08,0,0,1-4.47-31C160,247.27,160.18,247.15,160.38,246.92Z"/><path class="cls-2" d="M288.7,241.18c-1.8-4.21-3.29-8.24-5.21-12.06-1.64-3.26-3.82-6.25-5.63-9.43a3.47,3.47,0,0,1-.41-2.71c6.73-13.91-2.16-27.26-18.5-27.34-10.92-.06-19.58,4.67-25.43,14.09-4.68,7.55-14.4,7.84-19.46.56-1.76-2.54-3.66-5-5.2-7.68-3.09-5.39-2.56-11.26-1.47-17,.48-2.55,1.71-5,2.62-7.42.62-1.72,1.61-2.14,3.21-1,2.78,1.93,5.77,3.58,8.38,5.71,1.64,1.34,2.55,1.1,4-.11a50.65,50.65,0,0,1,34.69-12c12.69.42,23.59,5.18,32.12,14.79a3.44,3.44,0,0,1,.72,2.7c-2.68,10.59-.26,19.74,7.74,27.2a4.89,4.89,0,0,1,1.64,5.16,51.18,51.18,0,0,1-12.74,25.69A11.56,11.56,0,0,1,288.7,241.18Z"/><path class="cls-2" d="M181.77,165.27a93.52,93.52,0,0,0-2.07,9.28c-.58,4.84-.73,9.73-1.22,14.59-.1,1.05-.6,2.58-1.38,3-10,5-13.68,18.15-4.15,29.7,7.76,9.42,18,11.8,29.64,9.78a8.44,8.44,0,0,0,2.07-.87,11.68,11.68,0,0,1,17,9.71,81.31,81.31,0,0,1,.48,10.68,17.42,17.42,0,0,1-2,6.09,28.45,28.45,0,0,1-12.78,13.45c-1.78,1-2.74.66-3.4-1.21-1.23-3.44-2.61-6.83-3.75-10.31-.51-1.55-1-2.18-2.88-2.06-24.16,1.48-48.24-17.56-52.43-41.27a7.1,7.1,0,0,1,2.28-7.16c7.23-7,9.4-15.76,7.12-25.62a4.37,4.37,0,0,1,.51-3.34C161.75,171.57,170.68,167.06,181.77,165.27Z"/><path class="cls-2" d="M244.2,118.44c-.08,11.89-9.56,21.87-20.71,21.79S202.89,130,203,117.94s9.54-21.71,20.71-21.79C234.11,96.08,244.7,106.79,244.2,118.44Z"/><path class="cls-2" d="M145.83,305.35c.17-12,9.62-21.74,20.84-21.59S187.15,294,187,306.1c-.11,11.85-9.67,21.77-20.82,21.62S145.66,317.4,145.83,305.35Z"/><path class="cls-2" d="M301.39,305.92c-.2,9-5.4,17.1-13.06,20.16-12.33,4.93-25.77-3-27.8-16.37-1.49-9.81,2.61-18.84,10.6-23.35,11.92-6.74,25.95.34,29.38,13.44A51.83,51.83,0,0,1,301.39,305.92Z"/><path class="cls-2" d="M151.58,190.18c-.11,11.82-9.45,21.63-20.59,21.45-11.9-.2-20.68-9.91-20.54-21.89.15-12.88,9.47-21.79,21-21.71C142.71,168.1,151.69,178.06,151.58,190.18Z"/><path class="cls-2" d="M336.34,189.94c0,14.29-11.93,24.33-25.11,21.13-9.45-2.29-16-11.73-15.65-22.45C296,175.81,308,166,320.09,168.4,329.73,170.34,336.33,179.09,336.34,189.94Z"/></g></g></svg>